<svg xmlns="http://www.w3.org/2000/svg" width="45.14" height="43" viewBox="0 0 45.14 43"><path d="M13.151,33.509a4.636,4.636,0,0,0-1.036-3.037,3.087,3.087,0,0,0-4.981,0,4.969,4.969,0,0,0,0,6.074,3.087,3.087,0,0,0,4.981,0A4.636,4.636,0,0,0,13.151,33.509Zm.793-8.6H36.338l-1.962-9.594a.978.978,0,0,0-.309-.47.733.733,0,0,0-.463-.255H16.678a.733.733,0,0,0-.463.255.978.978,0,0,0-.309.47Zm30.24,8.6a4.636,4.636,0,0,0-1.036-3.037,3.087,3.087,0,0,0-4.981,0,4.969,4.969,0,0,0,0,6.074,3.087,3.087,0,0,0,4.981,0A4.636,4.636,0,0,0,44.185,33.509Zm3.527-2.58v10.32a.943.943,0,0,1-.2.618.627.627,0,0,1-.507.242H44.89v3.44A5.577,5.577,0,0,1,43.656,49.2a3.738,3.738,0,0,1-6,0,5.577,5.577,0,0,1-1.234-3.655v-3.44H13.856v3.44A5.577,5.577,0,0,1,12.622,49.2a3.738,3.738,0,0,1-6,0,5.577,5.577,0,0,1-1.234-3.655v-3.44H3.277a.627.627,0,0,1-.507-.242.943.943,0,0,1-.2-.618V30.929a6.5,6.5,0,0,1,1.444-4.26,4.375,4.375,0,0,1,3.493-1.76h.617L10.44,13.648a7.838,7.838,0,0,1,2.292-4.233,5.594,5.594,0,0,1,3.945-1.707H33.605a5.594,5.594,0,0,1,3.945,1.707,7.838,7.838,0,0,1,2.292,4.233l2.314,11.261h.617a4.374,4.374,0,0,1,3.493,1.76,6.5,6.5,0,0,1,1.444,4.26Z" transform="translate(-2.571 -7.709)" fill="rgba(88,18,18,0.38)" opacity="0.6"/></svg>