<svg xmlns="http://www.w3.org/2000/svg" width="64.94" height="42.516" viewBox="0 0 64.94 42.516"><g opacity="0.6"><path d="M64.04,8.013,44.287,0c-2.039,2.308-6.554,3.919-11.819,3.919S22.687,2.308,20.648,0L.895,8.013A1.236,1.236,0,0,0,.164,9.8l5.8,9.507a1.819,1.819,0,0,0,2.181.6l5.742-2.3c1.075-.432,2.333.208,2.333,1.2V39.856a2.993,2.993,0,0,0,3.247,2.657H45.443a2.993,2.993,0,0,0,3.247-2.657V18.791c0-.98,1.258-1.627,2.333-1.2l5.742,2.3a1.8,1.8,0,0,0,2.181-.6L64.76,9.8A1.224,1.224,0,0,0,64.04,8.013Z" transform="translate(0.004 0.002)" fill="rgba(88,18,18,0.69)" opacity="0.6"/><line y2="38.704" transform="translate(32.299 3.194)" fill="none"/><path d="M13.574,0,27.149,6.451H0Z" transform="translate(45.842 6.451) rotate(180)" fill="#fff"/></g></svg>