<svg xmlns="http://www.w3.org/2000/svg" width="70.394" height="50.182" viewBox="0 0 70.394 50.182"><g opacity="0.6"><path d="M33.185,10.766a9.433,9.433,0,0,1,6.046,3.505,14.616,14.616,0,0,1,2.834,6.51,18.354,18.354,0,0,1-.095,7.177,21.172,21.172,0,0,1-4.534,9.931,12.77,12.77,0,0,1-10.2,4.84,7.911,7.911,0,0,1-3.307-.835,5.957,5.957,0,0,0-5.48,0,7.911,7.911,0,0,1-3.307.835,12.77,12.77,0,0,1-10.2-4.84A21.172,21.172,0,0,1,.4,27.958a18.354,18.354,0,0,1-.095-7.177,14.616,14.616,0,0,1,2.834-6.51,9.433,9.433,0,0,1,6.046-3.505,17.792,17.792,0,0,1,6.235.584,28.332,28.332,0,0,1,5.763,2,28.332,28.332,0,0,1,5.763-2A17.8,17.8,0,0,1,33.185,10.766Zm-5.2-3.422a8.411,8.411,0,0,1-3.5,1.586,12.408,12.408,0,0,1-3.307.417l-1.417-.083a9.46,9.46,0,0,1,0-2.671A7.042,7.042,0,0,1,21.942,2a8.411,8.411,0,0,1,3.5-1.586A12.408,12.408,0,0,1,28.744,0l1.417.083.095,1.252a8.725,8.725,0,0,1-.472,2.921,6.81,6.81,0,0,1-1.8,3.088Z" transform="translate(0.001 0)" fill="rgba(88,18,18,0.69)" opacity="0.6"/><path d="M28.608,8.815c-5.056-1.447-10.985-.591-14.41,1.846l5.3,3.107a.673.673,0,0,1,0,1.272,2.354,2.354,0,0,1-2.168,0l-4.816-2.826L.219,27a.82.82,0,0,0,0,1.109,2.992,2.992,0,0,0,2.878.58l12.818-3.67-4.72-2.769a.673.673,0,0,1,0-1.272,2.376,2.376,0,0,1,2.168,0l5.469,3.208,9.786-2.8A11.051,11.051,0,0,0,34.1,18.169c2.888-3.473.432-7.661-5.488-9.355ZM37.444,6.85c1.871-2.291.9-5-2.907-6.85-4.826,2.347-5.037,6.051-.758,8.55l.768.45c4.26,2.51,10.582,2.387,14.573-.445A14.264,14.264,0,0,0,37.444,6.85Z" transform="translate(21.274 21.365)" fill="rgba(88,18,18,0.69)" opacity="0.6"/></g></svg>