<svg xmlns="http://www.w3.org/2000/svg" width="51.879" height="53.666" viewBox="0 0 51.879 53.666"><path d="M25.25,16.176,8.646,34.368V54c0,1.059.645,1.917,1.441,1.917l10.092-.035c.793-.005,1.434-.862,1.434-1.917V42.5c0-1.059.645-1.917,1.441-1.917h5.764c.8,0,1.441.858,1.441,1.917V53.96a2.279,2.279,0,0,0,.42,1.359,1.29,1.29,0,0,0,1.021.564l10.089.037c.8,0,1.441-.858,1.441-1.917V34.355l-16.6-18.179A.9.9,0,0,0,25.25,16.176ZM51.479,28.541,43.95,20.285V3.691c0-.794-.484-1.438-1.081-1.438H37.826c-.6,0-1.081.644-1.081,1.438v8.7L28.682,3.565a3.535,3.535,0,0,0-5.494,0L.391,28.541a1.781,1.781,0,0,0-.144,2.025l2.3,3.714a1.037,1.037,0,0,0,.731.518.912.912,0,0,0,.792-.323L25.25,11.264a.9.9,0,0,1,1.378,0L47.813,34.475a.91.91,0,0,0,1.522-.192l2.3-3.714a1.781,1.781,0,0,0,.24-1.056,1.617,1.617,0,0,0-.394-.972Z" transform="translate(0.001 -2.254)" fill="rgba(88,18,18,0.38)" opacity="0.6"/></svg>