<svg xmlns="http://www.w3.org/2000/svg" width="71" height="42.333" viewBox="0 0 71 42.333"><path d="M48.225,4.5H38.7a3.562,3.562,0,0,0-2.4.926L25.394,15.344c-.011.011-.022.033-.033.044a4.363,4.363,0,0,0-.233,6.171,4.649,4.649,0,0,0,6.224.3c.011-.011.033-.011.044-.022l8.864-8.067a1.791,1.791,0,0,1,2.507.11,1.753,1.753,0,0,1-.111,2.491L39.76,19,55.912,32.029a7.969,7.969,0,0,1,.876.849V11.553L50.732,5.536A3.536,3.536,0,0,0,48.225,4.5ZM60.35,11.575V36.25a3.535,3.535,0,0,0,3.55,3.527H71v-28.2ZM65.675,36.25a1.763,1.763,0,1,1,1.775-1.763A1.774,1.774,0,0,1,65.675,36.25ZM0,39.765H7.1a3.535,3.535,0,0,0,3.55-3.527V11.575H0Zm5.325-7.042A1.763,1.763,0,1,1,3.55,34.486,1.774,1.774,0,0,1,5.325,32.723Zm48.358,2.05L37.12,21.416l-3.328,3.031a8.036,8.036,0,0,1-11.282-.485A7.9,7.9,0,0,1,23,12.754L32.072,4.5h-9.3a3.556,3.556,0,0,0-2.507,1.036L14.2,11.553V36.228h2.03l10.04,9.026a7.131,7.131,0,0,0,9.984-1.025l.022-.022,1.986,1.708a4.141,4.141,0,0,0,5.8-.6l3.483-4.254.6.485a3.561,3.561,0,0,0,4.992-.518l1.054-1.289a3.517,3.517,0,0,0-.51-4.97Z" transform="translate(0 -4.5)" fill="rgba(88,18,18,0.38)" opacity="0.6"/></svg>