<svg xmlns="http://www.w3.org/2000/svg" width="56" height="56" viewBox="0 0 56 56"><path d="M31.783,20.917A20.55,20.55,0,0,0,14,30.944V20.917c0-6.176-4.71-11.2-10.5-11.2A3.623,3.623,0,0,0,0,13.45a3.623,3.623,0,0,0,3.5,3.733A3.627,3.627,0,0,1,7,20.917V50.783a7.251,7.251,0,0,0,7,7.467H33.25A1.811,1.811,0,0,0,35,56.383V54.517a3.623,3.623,0,0,0-3.5-3.733H28l14-11.2v16.8a1.811,1.811,0,0,0,1.75,1.867h3.5A1.811,1.811,0,0,0,49,56.383V32.334a13.055,13.055,0,0,1-3.5.53c-6.76,0-12.416-5.139-13.717-11.947ZM49,9.717H42L35,2.25V17.93c0,6.186,4.7,11.2,10.5,11.2S56,24.116,56,17.93V2.25ZM41.125,19.05a1.871,1.871,0,1,1,1.75-1.867A1.811,1.811,0,0,1,41.125,19.05Zm8.75,0a1.871,1.871,0,1,1,1.75-1.867A1.811,1.811,0,0,1,49.875,19.05Z" transform="translate(0 -2.25)" fill="rgba(88,18,18,0.38)" opacity="0.6"/></svg>