<svg xmlns="http://www.w3.org/2000/svg" width="64.829" height="52.007" viewBox="0 0 64.829 52.007"><g transform="matrix(1, 0.017, -0.017, 1, 0.888, 0)" opacity="0.6"><path d="M58.139,21.561c.767,0,1.395.377,1.4.834l.008,2.767c0,.457-.625.829-1.391.827L1.47,25.844c-.767,0-1.395-.377-1.4-.834L0,.107C0-.35,7.432-.331,58.139,21.561ZM43.307,5.993,33.481,9.876,23.549,1.986a2.006,2.006,0,0,0-2.311.063L11.186,12.034l.021,7.194,44.6.113L45.329,6.323a1.957,1.957,0,0,0-2.022-.33Z" transform="matrix(1, -0.017, 0.017, 1, 0, 24.915)" fill="rgba(88,18,18,0.69)" opacity="0.6"/><path d="M50.071,27.583,21.929,9.491s.808-4.243,2.718-5.217A56.816,56.816,0,0,1,29.935,2.1l-.1-2.373A31.277,31.277,0,0,0,19.043,1.351a32.334,32.334,0,0,0-8.179,3.8A20.978,20.978,0,0,0,8.181,7.2a1.638,1.638,0,0,0-.532,1.469L5.49,9.843,5.028,9.53A.956.956,0,0,0,4.074,9.5L.058,12.073a.354.354,0,0,0,.026.63l6.853,4.65a.956.956,0,0,0,.954.035l4.016-2.578a.354.354,0,0,0-.026-.63l-1.188-.806,1.594-1a10.2,10.2,0,0,1,4.373-.217L41.617,32.863a3.042,3.042,0,0,0,3.2.117l5.107-3.3C51.055,29.129,51.011,28.069,50.071,27.583Z" transform="matrix(0.966, -0.259, 0.259, 0.966, 6.267, 13.426)" fill="rgba(88,18,18,0.69)" opacity="0.6"/></g></svg>