<svg xmlns="http://www.w3.org/2000/svg" width="62.915" height="52.997" viewBox="0 0 62.915 52.997"><g transform="translate(6.915)" opacity="0.6"><line x1="17.746" y2="11.503" transform="translate(0 34.579)" fill="none" stroke="rgba(88,18,18,0.38)" stroke-linecap="round" stroke-width="10"/><path d="M19.021,41.486a17.613,17.613,0,0,1-7.4-1.63,18.588,18.588,0,0,1-3.231-1.912A19.627,19.627,0,0,1,5.571,35.41a20.614,20.614,0,0,1-2.323-3.07,21.4,21.4,0,0,1-1.754-3.523A22.029,22.029,0,0,1,.386,24.923c-.127-.677-.224-1.37-.288-2.06S0,21.45,0,20.743s.033-1.421.1-2.121.161-1.383.288-2.06a22.029,22.029,0,0,1,1.108-3.894A21.4,21.4,0,0,1,3.248,9.145a20.615,20.615,0,0,1,2.323-3.07A19.626,19.626,0,0,1,8.386,3.543,18.586,18.586,0,0,1,11.617,1.63,17.8,17.8,0,0,1,15.188.421a17.623,17.623,0,0,1,7.667,0,17.8,17.8,0,0,1,3.57,1.209,18.586,18.586,0,0,1,3.231,1.912,19.627,19.627,0,0,1,2.815,2.533,20.615,20.615,0,0,1,2.323,3.07,21.4,21.4,0,0,1,1.754,3.523,22.028,22.028,0,0,1,1.108,3.894c.127.677.224,1.37.288,2.06s.1,1.413.1,2.121-.033,1.421-.1,2.121-.161,1.383-.288,2.06a22.029,22.029,0,0,1-1.108,3.894,21.4,21.4,0,0,1-1.754,3.523,20.614,20.614,0,0,1-2.323,3.07,19.628,19.628,0,0,1-2.815,2.533,18.588,18.588,0,0,1-3.231,1.912,17.8,17.8,0,0,1-3.57,1.209,17.58,17.58,0,0,1-3.833.421Zm0-39.406c-9.436,0-17.113,8.372-17.113,18.663S9.585,39.406,19.021,39.406s17.113-8.372,17.113-18.663S28.457,2.08,19.021,2.08Z" transform="translate(17.958)" fill="rgba(88,18,18,0.38)"/><path d="M25.3,16.536,13.936,6.822,2.571,16.536V12.576L13.936,2.861,25.3,12.576Zm-2.841-.353v9.386H16.777V19.312H11.095v6.257H5.412V16.183l8.524-7.04Z" transform="translate(25.233 0.388)" fill="rgba(88,18,18,0.38)"/></g></svg>