<svg xmlns="http://www.w3.org/2000/svg" width="47.569" height="48.576" viewBox="0 0 47.569 48.576"><g opacity="0.6"><path d="M26.719,4.528Z" transform="translate(12.328 -2.826)" fill="rgba(88,18,18,0.38)"/><path d="M25.184,4.371a6.3,6.3,0,0,0-3.519-1,10.4,10.4,0,0,0-4.337.955A23.4,23.4,0,0,0,9.8,9.768a24.184,24.184,0,0,0-2.127,2.761c-.566.9.176,2.18-.566,3.01s-2.294,0-2.294,0a.466.466,0,0,0-.362.166L1.282,19.223a.611.611,0,0,0,0,.81l5.9,6.549a.479.479,0,0,0,.362.166.466.466,0,0,0,.362-.166l3.083-3.612a.611.611,0,0,0,0-.81s-.492-.54-1.124-1.245.074-2,.492-2.429a2.67,2.67,0,0,1,1.959-.706,3.307,3.307,0,0,1,1.059.187c1.133.353,2.4,1.65,4.727,4.234l-.362.675a.98.98,0,0,0,.121,1.079s-.464-.509,1.216,1.36l4.643-4.9c-1.774-1.962-1.346-1.463-1.346-1.463a.8.8,0,0,0-.585-.239.761.761,0,0,0-.39.1l-.52.311c-2.6-2.885-3.278-4.172-3.185-6.4.1-2.325,1.142-3.85,2.832-5.47A7.016,7.016,0,0,1,26.15,5.679C26.893,5.669,25.76,4.786,25.184,4.371Z" transform="translate(1.875 -3.375)" fill="rgba(88,18,18,0.38)" opacity="0.6"/><path d="M36.531,31.991s-6.4-5.937-12.091-12.008l-4.429,5.252c5.432,6.289,10.67,13.243,10.67,13.243a.479.479,0,0,0,.362.166.466.466,0,0,0,.362-.166L36.522,32.8A.622.622,0,0,0,36.531,31.991Z" transform="translate(10.893 9.932)" fill="rgba(88,18,18,0.38)" opacity="0.6"/><path d="M45.526,12.389l-5.239,6.143-5.109-1.086-.92-5.968L39.5,5.335A5.42,5.42,0,0,0,35.6,3.4a1.093,1.093,0,0,0-.2.012,9.061,9.061,0,0,0-5.989,3.469,12.6,12.6,0,0,0-2.24,12.181,2.087,2.087,0,0,1-.27,2.3c-.15.164-.99,1.1-2.25,2.488-.36.4-.74.818-1.16,1.285-.8.888-1.71,1.892-2.68,2.943-.38.42-.77.841-1.16,1.285C13.95,35.641,6.961,43.314,6.961,43.314c-1.8,1.81-1.67,5.15-.01,7.1a4.17,4.17,0,0,0,3.13,1.495,3.608,3.608,0,0,0,2.95-1.53s6.549-8.152,11.928-14.82c.37-.467.74-.911,1.1-1.366.93-1.156,1.8-2.231,2.58-3.188.39-.491.76-.946,1.1-1.355,1.15-1.425,1.93-2.382,2.1-2.569a1.455,1.455,0,0,1,1.11-.6,1.72,1.72,0,0,1,.86.28,6.205,6.205,0,0,0,3.24.853,10.019,10.019,0,0,0,7.209-3.445,11.693,11.693,0,0,0,2.96-7.007A7.015,7.015,0,0,0,45.526,12.389ZM11.35,47.519a1.272,1.272,0,0,1-1.98,0,1.853,1.853,0,0,1,0-2.312,1.272,1.272,0,0,1,1.98,0A1.853,1.853,0,0,1,11.35,47.519Z" transform="translate(-5.658 -3.365)" fill="rgba(88,18,18,0.38)" opacity="0.6"/></g></svg>