<svg xmlns="http://www.w3.org/2000/svg" width="55" height="42.762" viewBox="0 0 55 42.762"><path d="M23.878,4.32C9.4,4.32.72,15.723.72,21.425S3.614,31.4,9.4,31.4s8.685,1.425,8.685,5.7a9.819,9.819,0,0,0,10.131,9.977c18.817,0,27.5-9.977,27.5-19.955C55.719,10.022,41.243,4.32,23.878,4.32Zm-3.618,5.7a3.564,3.564,0,1,1-3.618,3.563,3.591,3.591,0,0,1,3.618-3.563Zm11.577,0a3.564,3.564,0,1,1-3.617,3.563,3.591,3.591,0,0,1,3.617-3.563Zm11.58,5.7A3.564,3.564,0,1,1,39.8,19.287,3.591,3.591,0,0,1,43.416,15.723ZM10.128,18.575A3.563,3.563,0,1,1,6.51,22.136,3.589,3.589,0,0,1,10.128,18.575ZM28.219,32.828a4.277,4.277,0,1,1-4.341,4.277,4.308,4.308,0,0,1,4.341-4.277Z" transform="translate(-0.72 -4.32)" fill="rgba(88,18,18,0.38)" opacity="0.6"/></svg>