<svg xmlns="http://www.w3.org/2000/svg" width="65.316" height="62.486" viewBox="0 0 65.316 62.486"><g opacity="0.6"><path d="M25.407,15.34,24.95,3.895A2.94,2.94,0,0,1,28.012.75a3.557,3.557,0,0,1,3.323,3.395l.457,11.445Zm11.237,2.071L1.532,16.041A1.47,1.47,0,0,0,0,17.614l.13,3.27a1.779,1.779,0,0,0,1.661,1.7l1.6.062.13,3.27A17.953,17.953,0,0,0,16.927,42.434l.4,10.137,6.384.249-.4-10.137c7.224-1.231,12.444-7.615,12.129-15.524l-.13-3.27,1.6.062a1.47,1.47,0,0,0,1.531-1.573l-.13-3.27A1.779,1.779,0,0,0,36.644,17.411ZM12.639,14.842,12.182,3.4A3.557,3.557,0,0,0,8.86,0,2.94,2.94,0,0,0,5.8,3.148l.457,11.445Z" transform="matrix(0.602, 0.799, -0.799, 0.602, 42.184, 0)" fill="rgba(88,18,18,0.38)" opacity="0.6"/></g></svg>