<svg xmlns="http://www.w3.org/2000/svg" width="49.939" height="46" viewBox="0 0 49.939 46"><path d="M48.393,26.636a18.277,18.277,0,0,0-4.6-20.968,22.21,22.21,0,0,0-29.637,0l-5.461,5.04,20.626,19A14.74,14.74,0,0,1,48.393,26.636ZM27.143,33.8,5.649,14A9.976,9.976,0,0,0,7.336,26.95L10.7,30.058.655,38.09a1.677,1.677,0,0,0-.1,2.587l5.208,4.806a2.023,2.023,0,0,0,2.8-.09l8.709-9.28,3.482,3.207a11.778,11.778,0,0,0,6.856,2.992,11.941,11.941,0,0,1-1.073-4.95,11.492,11.492,0,0,1,.6-3.566Zm13.429-5.049c-5.169,0-9.362,3.863-9.362,8.624S35.4,46,40.572,46s9.362-3.863,9.362-8.624S45.741,28.747,40.572,28.747Z" transform="translate(0.005 -0.002)" fill="rgba(88,18,18,0.38)" opacity="0.6"/></svg>