<svg xmlns="http://www.w3.org/2000/svg" width="74.238" height="58.091" viewBox="0 0 74.238 58.091"><g transform="translate(6.966)" opacity="0.6"><g opacity="0.6"><line x1="22.784" y2="16.009" transform="translate(0 35.116)" fill="none" stroke="rgba(88,18,18,0.69)" stroke-linecap="round" stroke-width="10" opacity="0.6"/><g transform="translate(21.573)" fill="rgba(88,18,18,0.69)"><path d="M 22.84981918334961 45.52571487426758 C 22.08713912963867 45.52571487426758 21.31822967529297 45.48661422729492 20.56444931030273 45.40949630737305 C 19.82148933410645 45.33351516723633 19.07500839233398 45.21877670288086 18.34571838378906 45.06846618652344 C 16.91109848022461 44.77280426025391 15.49999904632568 44.33165740966797 14.15158939361572 43.75726699829102 C 12.82752895355225 43.1932258605957 11.55034923553467 42.49504470825195 10.35553932189941 41.68210601806641 C 9.17194938659668 40.87677383422852 8.058918952941895 39.95188522338867 7.047369003295898 38.9331169128418 C 6.035768985748291 37.9142951965332 5.117349147796631 36.79323577880859 4.317619323730469 35.60104370117188 C 3.510269165039063 34.39747619628906 2.816859245300293 33.11084365844727 2.256659269332886 31.77691459655762 C 1.686099171638489 30.41836547851563 1.247899174690247 28.99663543701172 0.9542191624641418 27.55120468139648 C 0.8049191832542419 26.81636619567871 0.69093918800354 26.06419563293457 0.6154491901397705 25.31561470031738 C 0.5388391613960266 24.55594635009766 0.4999991953372955 23.78118515014648 0.4999991953372955 23.01285552978516 C 0.4999991953372955 22.24452590942383 0.5388391613960266 21.46977615356445 0.6154491901397705 20.71010589599609 C 0.69093918800354 19.96149635314941 0.8049191832542419 19.20933532714844 0.9542191624641418 18.47451591491699 C 1.247899174690247 17.02907562255859 1.686109185218811 15.60734558105469 2.256659269332886 14.24882507324219 C 2.816859245300293 12.91488552093506 3.510269165039063 11.62825584411621 4.317619323730469 10.42468547821045 C 5.117339134216309 9.232505798339844 6.035748958587646 8.111435890197754 7.047369003295898 7.09259557723999 C 8.058938980102539 6.073825359344482 9.171969413757324 5.148925304412842 10.35553932189941 4.343625545501709 C 11.55030918121338 3.53069543838501 12.82748889923096 2.832505464553833 14.15158939361572 2.268465518951416 C 15.50002956390381 1.694065570831299 16.91112899780273 1.252905488014221 18.3457088470459 0.9572555422782898 C 19.07497978210449 0.8069455027580261 19.82145881652832 0.692205548286438 20.56442832946777 0.61622554063797 C 21.31834983825684 0.5391055345535278 22.08725929260254 0.5000055432319641 22.84981918334961 0.5000055432319641 C 23.61237907409668 0.5000055432319641 24.38128852844238 0.5391055345535278 25.13521003723145 0.6162155270576477 C 25.87817001342773 0.692205548286438 26.62464904785156 0.8069455027580261 27.35392951965332 0.9572555422782898 C 28.78850936889648 1.252905488014221 30.19960975646973 1.694055557250977 31.54804992675781 2.268465518951416 C 32.87215042114258 2.832505464553833 34.14933013916016 3.53069543838501 35.34410095214844 4.343625545501709 C 36.52766036987305 5.148925304412842 37.64069747924805 6.07381534576416 38.65229034423828 7.092605590820313 C 39.66389846801758 8.111445426940918 40.58231735229492 9.232515335083008 41.38201904296875 10.42468547821045 C 42.18935775756836 11.62823581695557 42.88277053833008 12.91486549377441 43.44300842285156 14.24882507324219 C 44.0135498046875 15.6073751449585 44.45174789428711 17.02910614013672 44.74541854858398 18.47451591491699 C 44.89471817016602 19.2092456817627 45.00869750976563 19.96139526367188 45.08419036865234 20.71009635925293 C 45.16080093383789 21.46967506408691 45.19963836669922 22.24443626403809 45.19963836669922 23.01285552978516 C 45.19963836669922 23.78128623962402 45.16080093383789 24.55604553222656 45.08419036865234 25.31561470031738 C 45.00869750976563 26.06429481506348 44.89471817016602 26.81645584106445 44.74541854858398 27.55119514465332 C 44.45174789428711 28.99660491943359 44.01355743408203 30.4183349609375 43.44300079345703 31.77691459655762 C 42.88277053833008 33.11086654663086 42.18935775756836 34.39749526977539 41.38201904296875 35.60104370117188 C 40.58230972290039 36.7932243347168 39.66389083862305 37.91428375244141 38.65227890014648 38.93310546875 C 37.64072036743164 39.95188522338867 36.52767944335938 40.87678527832031 35.34410095214844 41.68211364746094 C 34.14928817749023 42.49504470825195 32.87210845947266 43.1932258605957 31.54804992675781 43.75726699829102 C 30.19963836669922 44.33165740966797 28.78853988647461 44.7728157043457 27.35393905639648 45.06846618652344 C 26.62461853027344 45.21877670288086 25.87813949584961 45.33351516723633 25.13521957397461 45.40948486328125 C 24.38140869140625 45.48661422729492 23.61249923706055 45.52571487426758 22.84981918334961 45.52571487426758 Z M 22.84981918334961 1.807885527610779 C 11.23824882507324 1.807885527610779 1.791539192199707 11.32039546966553 1.791539192199707 23.01285552978516 C 1.791539192199707 34.70532608032227 11.23824882507324 44.21784591674805 22.84981918334961 44.21784591674805 C 34.46139907836914 44.21784591674805 43.90810775756836 34.70532608032227 43.90810775756836 23.01285552978516 C 43.90810775756836 11.32039546966553 34.46139907836914 1.807885527610779 22.84981918334961 1.807885527610779 Z" stroke="none"/><path d="M 22.84981918334961 45.02571487426758 C 23.5955696105957 45.02571487426758 24.34736824035645 44.98748397827148 25.08436012268066 44.91208648681641 C 25.8105297088623 44.83782577514648 26.54016876220703 44.72567367553711 27.25300979614258 44.57875442504883 C 28.65509986877441 44.2898063659668 30.03422927856445 43.85864639282227 31.35208892822266 43.29726409912109 C 32.64633941650391 42.74592590332031 33.89481735229492 42.06342697143555 35.06282806396484 41.26872634887695 C 36.22006988525391 40.48132705688477 37.3083610534668 39.57698440551758 38.29747772216797 38.58081436157227 C 39.28668975830078 37.58454513549805 40.18478012084961 36.48829650878906 40.96678924560547 35.32251739501953 C 41.75621032714844 34.14566421508789 42.43423080444336 32.88761520385742 42.98200988769531 31.58330535888672 C 43.53985977172852 30.25498580932617 43.96829986572266 28.86489486694336 44.25543975830078 27.45163536071777 C 44.40142822265625 26.73315620422363 44.51288986206055 25.99762535095215 44.58671951293945 25.26544570922852 C 44.66164779663086 24.52247619628906 44.69963836669922 23.76459503173828 44.69963836669922 23.01285552978516 C 44.69963836669922 22.26111602783203 44.66164779663086 21.50324630737305 44.58671951293945 20.7602653503418 C 44.51288986206055 20.028076171875 44.40142822265625 19.29254531860352 44.25542831420898 18.57407569885254 C 43.96828842163086 17.16081619262695 43.53984832763672 15.77072525024414 42.98200988769531 14.44242572784424 C 42.43423080444336 13.13811588287354 41.75621032714844 11.88006591796875 40.96678924560547 10.70321559906006 C 40.18478775024414 9.537445068359375 39.28670883178711 8.44118595123291 38.29747772216797 7.44489574432373 C 37.3083381652832 6.448725700378418 36.22005081176758 5.544385433197021 35.06282806396484 4.75700569152832 C 33.89485931396484 3.962305545806885 32.64637756347656 3.279815435409546 31.35208892822266 2.728475570678711 C 30.03419876098633 2.167075634002686 28.65506935119629 1.735905528068542 27.25299835205078 1.446955561637878 C 26.54019927978516 1.300055503845215 25.8105583190918 1.187905550003052 25.0843391418457 1.113625526428223 C 24.34724998474121 1.038235545158386 23.59544944763184 1.000005483627319 22.84981918334961 1.000005483627319 C 22.10418891906738 1.000005483627319 21.35238838195801 1.038235545158386 20.61530876159668 1.113625526428223 C 19.88906860351563 1.187905550003052 19.1594295501709 1.300055503845215 18.44664001464844 1.446965575218201 C 17.04456901550293 1.735915541648865 15.66543960571289 2.167075634002686 14.34753894805908 2.728475570678711 C 13.05325889587402 3.279815435409546 11.80477905273438 3.962305545806885 10.63680934906006 4.75700569152832 C 9.479578971862793 5.544395446777344 8.391288757324219 6.448725700378418 7.40217924118042 7.44489574432373 C 6.412949085235596 8.44117546081543 5.514859199523926 9.537435531616211 4.73284912109375 10.70321559906006 C 3.943409204483032 11.88008594512939 3.265399217605591 13.13813591003418 2.717649221420288 14.44242572784424 C 2.159809112548828 15.7707052230835 1.731359124183655 17.16078567504883 1.444209218025208 18.57407569885254 C 1.298209190368652 19.29263496398926 1.186749219894409 20.02817535400391 1.112919211387634 20.7602653503418 C 1.037989139556885 21.50333595275879 0.9999991655349731 22.26121520996094 0.9999991655349731 23.01285552978516 C 0.9999991655349731 23.76450538635254 1.037989139556885 24.52238464355469 1.112919211387634 25.26544570922852 C 1.186749219894409 25.99752616882324 1.298209190368652 26.73306465148926 1.444209218025208 27.45165634155273 C 1.731359124183655 28.86492538452148 2.159799098968506 30.2550163269043 2.717649221420288 31.58331489562988 C 3.265399217605591 32.88759613037109 3.943409204483032 34.14564514160156 4.73284912109375 35.32250595092773 C 5.514869213104248 36.48830413818359 6.412959098815918 37.58455657958984 7.40217924118042 38.58081436157227 C 8.391279220581055 39.57697677612305 9.479558944702148 40.48131561279297 10.63679885864258 41.26871490478516 C 11.80481910705566 42.06342697143555 13.05329895019531 42.74592590332031 14.34754943847656 43.29725646972656 C 15.66540908813477 43.85864639282227 17.0445384979248 44.2898063659668 18.4466495513916 44.57876586914063 C 19.15946006774902 44.72567367553711 19.88909912109375 44.83781433105469 20.6153392791748 44.91208648681641 C 21.35227966308594 44.98748397827148 22.10405921936035 45.02571487426758 22.84981918334961 45.02571487426758 M 22.84981918334961 1.307885527610779 C 34.73709869384766 1.307885527610779 44.40810775756836 11.04469585418701 44.40810775756836 23.01285552978516 C 44.40810775756836 34.98102569580078 34.73709869384766 44.71784591674805 22.84981918334961 44.71784591674805 C 10.96253871917725 44.71784591674805 1.291539192199707 34.98102569580078 1.291539192199707 23.01285552978516 C 1.291539192199707 11.04469585418701 10.96253871917725 1.307885527610779 22.84981918334961 1.307885527610779 M 22.84981918334961 46.02571487426758 C 22.07037925720215 46.02571487426758 21.28433990478516 45.98575592041016 20.51355934143066 45.90689468383789 C 19.75385856628418 45.82920455932617 18.99053001403809 45.71187591552734 18.24478912353516 45.55817413330078 C 16.7776985168457 45.25582504272461 15.33461952209473 44.80468368530273 13.95563888549805 44.21726608276367 C 12.60169887542725 43.64050674438477 11.29581928253174 42.9266242980957 10.07426929473877 42.09549713134766 C 8.86432933807373 41.27223587036133 7.726559162139893 40.32678604125977 6.692559242248535 39.28540420532227 C 5.658559322357178 38.24403381347656 4.719809055328369 37.09814453125 3.902389287948608 35.87958526611328 C 3.077129125595093 34.64931488037109 2.368319272994995 33.33411407470703 1.795659184455872 31.97051620483398 C 1.212389230728149 30.58168601989746 0.7644391655921936 29.12831497192383 0.4642291963100433 27.65076637268066 C 0.3116291761398315 26.89968490600586 0.1951291859149933 26.13092613220215 0.1179691851139069 25.36578559875488 C 0.03968918323516846 24.58950614929199 -8.166504130713292e-07 23.79786491394043 -8.166504130713292e-07 23.01285552978516 C -8.166504130713292e-07 22.22786521911621 0.03968918323516846 21.43621635437012 0.1179691851139069 20.65993499755859 C 0.1951291859149933 19.89481544494629 0.3116291761398315 19.12603569030762 0.4642291963100433 18.37496566772461 C 0.7644391655921936 16.89741516113281 1.212389230728149 15.44403553009033 1.795659184455872 14.05521583557129 C 2.368319272994995 12.69161510467529 3.077129125595093 11.37641525268555 3.902389287948608 10.14614582061768 C 4.719809055328369 8.92757511138916 5.658559322357178 7.781685352325439 6.692559242248535 6.740305423736572 C 7.726559162139893 5.698935508728027 8.86432933807373 4.753485679626465 10.07426929473877 3.930235624313354 C 11.29581928253174 3.099085569381714 12.60169887542725 2.385215520858765 13.95563888549805 1.808465480804443 C 15.33461952209473 1.22104549407959 16.7776985168457 0.7698955535888672 18.24478912353516 0.4675455391407013 C 18.99053001403809 0.3138455152511597 19.75385856628418 0.1965155303478241 20.51355934143066 0.1188155263662338 C 21.28433990478516 0.03997553139925003 22.07037925720215 5.529785084945615e-06 22.84981918334961 5.529785084945615e-06 C 23.62925910949707 5.529785084945615e-06 24.41529846191406 0.03997553139925003 25.18608856201172 0.1188155263662338 C 25.9457893371582 0.1965155303478241 26.70910835266113 0.3138455152511597 27.45485877990723 0.4675455391407013 C 28.92194938659668 0.7698955535888672 30.36501884460449 1.22104549407959 31.74399948120117 1.808465480804443 C 33.09793853759766 2.385215520858765 34.4038200378418 3.099085569381714 35.62537002563477 3.930235624313354 C 36.83530807495117 4.753485679626465 37.97307968139648 5.698935508728027 39.00708770751953 6.740305423736572 C 40.04108810424805 7.781685352325439 40.97983932495117 8.92757511138916 41.79724884033203 10.14614582061768 C 42.62250900268555 11.37641525268555 43.33131790161133 12.69161510467529 43.90399932861328 14.05521583557129 C 44.48725891113281 15.44403553009033 44.93520736694336 16.89741516113281 45.23540878295898 18.37496566772461 C 45.38803100585938 19.12603569030762 45.50452041625977 19.89481544494629 45.58166885375977 20.65993499755859 C 45.65995788574219 21.43621635437012 45.69963836669922 22.22786521911621 45.69963836669922 23.01285552978516 C 45.69963836669922 23.79786491394043 45.65995788574219 24.58950614929199 45.58166885375977 25.36578559875488 C 45.50452041625977 26.13092613220215 45.38803100585938 26.89968490600586 45.23540878295898 27.65076637268066 C 44.93520736694336 29.12831497192383 44.48725891113281 30.58168601989746 43.90399932861328 31.97051620483398 C 43.33131790161133 33.33411407470703 42.62250900268555 34.64931488037109 41.79724884033203 35.87958526611328 C 40.97983932495117 37.09814453125 40.04108810424805 38.24403381347656 39.00708770751953 39.28540420532227 C 37.97307968139648 40.32678604125977 36.83530807495117 41.27223587036133 35.62537002563477 42.09549713134766 C 34.4038200378418 42.9266242980957 33.09793853759766 43.64050674438477 31.74399948120117 44.21726608276367 C 30.36501884460449 44.80468368530273 28.92194938659668 45.25582504272461 27.45485877990723 45.55817413330078 C 26.70910835266113 45.71187591552734 25.9457893371582 45.82920455932617 25.18608856201172 45.90689468383789 C 24.41529846191406 45.98575592041016 23.62925910949707 46.02571487426758 22.84981918334961 46.02571487426758 Z M 22.84981918334961 2.307885646820068 C 11.51393890380859 2.307885646820068 2.291539192199707 11.59609508514404 2.291539192199707 23.01285552978516 C 2.291539192199707 34.42962646484375 11.51393890380859 43.71784591674805 22.84981918334961 43.71784591674805 C 34.18569946289063 43.71784591674805 43.40810775756836 34.42962646484375 43.40810775756836 23.01285552978516 C 43.40810775756836 11.59609508514404 34.18569946289063 2.307885646820068 22.84981918334961 2.307885646820068 Z" stroke="none" fill="#707070"/></g></g><path d="M31.27,29.154H6.64A2.02,2.02,0,0,1,4.5,27.285V16.067A59.485,59.485,0,0,0,15.207,19.6v1.137a1.009,1.009,0,0,0,1.071.935h5.354a1.01,1.01,0,0,0,1.071-.935V19.6a59.519,59.519,0,0,0,10.709-3.537V27.285A2.02,2.02,0,0,1,31.27,29.154ZM20.562,17.937a1.01,1.01,0,0,1,1.071.935v.935a1.01,1.01,0,0,1-1.071.935H17.349a1.009,1.009,0,0,1-1.071-.935v-.935a1.009,1.009,0,0,1,1.071-.935Zm2.142,0A1.01,1.01,0,0,0,21.632,17H16.278a1.009,1.009,0,0,0-1.071.935v.838A58.365,58.365,0,0,1,4.5,15.132V11.393A2.02,2.02,0,0,1,6.64,9.523h6.425V7.654a2.02,2.02,0,0,1,2.142-1.87h7.5a2.02,2.02,0,0,1,2.142,1.87v1.87H31.27a2.02,2.02,0,0,1,2.142,1.87v3.739A58.4,58.4,0,0,1,22.7,18.774Zm0-9.348a1.01,1.01,0,0,0-1.071-.935H16.278a1.009,1.009,0,0,0-1.071.935v.935h7.5Z" transform="translate(25.315 4.105)" fill="rgba(88,18,18,0.69)" opacity="0.6"/></g></svg>